<svg xmlns="http://www.w3.org/2000/svg" width="256" height="256" viewBox="0 0 256 256">
  <defs>
    <pattern id="bambooStalks" x="0" y="0" width="50" height="50" patternUnits="userSpaceOnUse">
      <rect x="18" y="0" width="4" height="50" fill="rgba(74,222,128,0.25)"/>
      <rect x="20" y="0" width="2" height="50" fill="rgba(134,239,172,0.2)"/>
      <rect x="35" y="0" width="3" height="50" fill="rgba(74,222,128,0.2)"/>
      <rect x="36" y="0" width="1" height="50" fill="rgba(134,239,172,0.15)"/>
      <path d="M18,15 L22,15 M18,30 L22,30 M35,20 L38,20 M35,35 L38,35" stroke="rgba(34,197,94,0.3)" stroke-width="1"/>
    </pattern>
    <pattern id="bambooLeaves" x="0" y="0" width="30" height="30" patternUnits="userSpaceOnUse">
      <ellipse cx="15" cy="15" rx="8" ry="4" fill="rgba(74,222,128,0.15)" transform="rotate(45 15 15)"/>
      <ellipse cx="5" cy="20" rx="6" ry="3" fill="rgba(34,197,94,0.12)" transform="rotate(-30 5 20)"/>
    </pattern>
  </defs>
  <rect width="256" height="256" fill="#061a10"/>
  <rect width="256" height="256" fill="url(#bambooStalks)"/>
  <rect width="256" height="256" fill="url(#bambooLeaves)"/>
  <path d="M128,0 L128,256" stroke="rgba(74,222,128,0.3)" stroke-width="5"/>
  <path d="M130,0 L130,256" stroke="rgba(134,239,172,0.2)" stroke-width="2"/>
  <path d="M128,60 L145,55 M128,120 L140,115 M128,180 L142,175" stroke="rgba(34,197,94,0.3)" stroke-width="2"/>
</svg>