<svg xmlns="http://www.w3.org/2000/svg" width="256" height="256" viewBox="0 0 256 256">
  <defs>
    <pattern id="waves" x="0" y="0" width="40" height="40" patternUnits="userSpaceOnUse">
      <path d="M0,20 Q10,15 20,20 T40,20" stroke="rgba(34,211,238,0.18)" stroke-width="1.5" fill="none"/>
      <path d="M0,30 Q10,25 20,30 T40,30" stroke="rgba(6,182,212,0.12)" stroke-width="1" fill="none"/>
    </pattern>
    <pattern id="bubbles2" x="0" y="0" width="35" height="35" patternUnits="userSpaceOnUse">
      <circle cx="10" cy="10" r="2" fill="rgba(103,232,249,0.3)"/>
      <circle cx="25" cy="20" r="1.5" fill="rgba(34,211,238,0.25)"/>
      <circle cx="18" cy="30" r="2" fill="rgba(103,232,249,0.2)"/>
    </pattern>
  </defs>
  <rect width="256" height="256" fill="#081528"/>
  <rect width="256" height="256" fill="url(#waves)"/>
  <rect width="256" height="256" fill="url(#bubbles2)"/>
  <path d="M0,100 Q64,80 128,100 T256,100" stroke="rgba(103,232,249,0.15)" stroke-width="2" fill="none"/>
  <path d="M0,160 Q64,145 128,160 T256,160" stroke="rgba(34,211,238,0.12)" stroke-width="1.5" fill="none"/>
  <circle cx="80" cy="60" r="20" fill="rgba(103,232,249,0.08)"/>
  <circle cx="180" cy="200" r="15" fill="rgba(34,211,238,0.06)"/>
</svg>